PathFileType	4	(X/Y/Z)	Patient4_TMGait_0pt5_01_left_06.trc.trc
DataRate	CameraRate	NumFrames	NumMarkers	Units	OrigDataRate	OrigDataStartFrame	OrigNumFrames
71.428571428571	71.428571428571	4	33	mm	71.428571428571	36	       141
Frame#	Time	L.ASIS			Sacral			L.Shoulder			Chest			R.Shoulder			Neck			R.ASIS			R.Thigh.Superior			R.Thigh.Lateral			R.Thigh.Inferior			R.Patella			L.Thigh.Superior			L.Thigh.Lateral			L.Thigh.Inferior			L.Patella			L.Shank.Superior			L.Shank.Lateral			L.Shank.Inferior			R.Shank.Superior			R.Shank.Lateral			R.Shank.Inferior			R.Heel			R.Midfoot.Superior			R.Midfoot.Lateral			R.Toe			L.Heel			L.Midfoot.Lateral			L.Midfoot.Superior			L.Toe			L.Elbow			L.Wrist			R.Elbow			R.Wrist			
		X1	Y1	Z1	X2	Y2	Z2	X3	Y3	Z3	X4	Y4	Z4	X5	Y5	Z5	X6	Y6	Z6	X7	Y7	Z7	X8	Y8	Z8	X9	Y9	Z9	X10	Y10	Z10	X11	Y11	Z11	X12	Y12	Z12	X13	Y13	Z13	X14	Y14	Z14	X15	Y15	Z15	X16	Y16	Z16	X17	Y17	Z17	X18	Y18	Z18	X19	Y19	Z19	X20	Y20	Z20	X21	Y21	Z21	X22	Y22	Z22	X23	Y23	Z23	X24	Y24	Z24	X25	Y25	Z25	X26	Y26	Z26	X27	Y27	Z27	X28	Y28	Z28	X29	Y29	Z29	X30	Y30	Z30	X31	Y31	Z31	X32	Y32	Z32	X33	Y33	Z33	

36	8.490000000000	704.764073694395	958.588934132522	331.548342450191	484.630904513156	993.928845905243	483.582061861481	636.257503903744	1430.563402740765	316.085909610584	741.132435406745	1362.562720171346	477.094959871898	652.012810851249	1430.304361038903	651.765076066631	628.047215391681	1489.253401387196	465.882056628459	710.416971561876	932.534930571073	606.337297643781	727.157514875118	721.251341432898	579.476203028986	630.837303661011	621.002802135777	637.624975700454	702.960668163721	555.897131411345	563.926241852418	686.425696750664	453.373716753000	575.893906803112	777.684228353930	762.422323486313	366.732028765293	716.376855442947	636.635729010589	296.261774888871	808.633352727446	570.792278815398	365.029896418937	819.743891234087	498.119135097636	372.188757993284	795.115887239381	422.919861245435	361.113566536582	713.770195647285	307.281923179180	300.855071168592	764.695006723086	196.242866251555	371.461872623341	619.578061847989	380.811896528642	579.346737692278	511.041336746845	317.329168747434	640.830604759932	510.295025628280	211.800030648846	582.384322336762	320.173340079340	97.072490086213	559.315372626436	500.849045156947	103.533162554541	590.028118371303	400.672559652250	63.361497036465	628.087788386184	601.463204244659	35.866679613187	609.479148579666	638.454035426081	37.332181665213	397.724988570949	718.053740264785	35.540274605566	322.263100483275	798.163106418594	97.365815256549	354.942072436154	928.367714034107	47.815156815968	335.144901310517	584.671596920001	1078.673332472053	201.355869078629	620.201740850380	821.044213379507	192.887549602473	693.985894702723	1087.738542251322	769.604657642326	934.716000114440	1014.841156713531	730.482766694480	
37	8.504000000000	705.217787915064	959.953023254498	328.322759421394	484.669399449666	995.022009156237	479.661653004017	636.722113605239	1431.929216965560	312.801159133939	740.905921130466	1364.046494982267	474.306559698893	650.742390356958	1431.611697297139	648.512797335376	627.334264483685	1490.490335431588	462.502020706626	710.008116090529	933.820786093436	602.916471925521	730.726604707771	723.297921245130	577.408057889813	636.778985222685	621.806097224693	636.253240211999	711.039437165991	557.277411751596	563.500108581738	695.701027537133	453.308008360576	577.408392452558	776.551416713219	762.032262603502	363.972248791720	713.867835012626	636.686341456996	294.200641117154	804.697078870019	569.977057989409	363.677663744452	814.875496258231	497.489886526584	371.398224122188	790.088111994598	422.401574176995	360.336037981407	708.692448363843	306.920077286946	300.118572258983	758.454739535745	195.946883667030	371.408307147948	626.566542120961	381.795276326299	580.509212800240	515.285662186355	322.201695994254	640.861916624812	512.348415570468	216.034636291417	583.699807501479	318.898819734486	109.167097256759	559.948117000405	499.016036035950	105.205858200867	590.877355587475	396.962153781304	70.299732108168	628.344087965800	594.650646013618	35.256963850999	609.320762391316	631.463626265129	37.298910772170	397.699325923527	711.081655045727	35.520515523850	322.256030463914	791.253588314961	97.277128699227	355.030579143300	921.468291679055	47.503378931449	335.161199364768	591.773838172330	1079.055139585790	197.089477714971	638.244407370054	823.080402472403	188.594053499083	683.681904021295	1087.576482815121	765.833526333417	920.028542147145	999.271501264796	729.245528190765	
38	8.518000000000	705.585441938231	961.167088021829	325.115732164884	484.594062801816	995.984992706988	475.727853041188	637.271567930909	1433.273820666711	309.625843585758	740.642462952997	1365.402958601461	471.659023976733	649.332967327470	1432.693228622893	645.380319833984	626.616080490986	1491.624521451360	459.268404369670	709.492381796108	935.045612333726	599.536020502963	734.753701742195	725.559522574017	575.386184121567	643.528328689139	622.694758138414	635.116985186539	720.028391779485	558.936058559043	563.259349931094	705.976880698882	453.584881744164	579.021252930316	775.192304940480	761.532588577687	361.332910505003	711.247853697986	636.727123254388	292.048318371016	800.579119737124	569.154390151396	362.273806874263	809.803891019964	496.823808374500	370.475378435962	784.883501956273	421.852321183702	359.414210675492	703.436497284092	306.483062680344	299.289375394948	752.114039640311	195.618442500614	371.278964975949	634.687297676249	383.053638280744	581.807491813344	520.744430269106	327.515829647202	641.028124818449	515.511021294645	220.806653186900	585.115088831130	319.032003547049	122.731546622237	560.588765895792	497.828890024793	107.308168169331	591.715696717295	394.061451998866	78.432065826663	628.603621020955	587.812833088231	34.441866184514	609.212107946925	624.406314367697	37.250714603464	397.676173794387	704.051378121377	35.466929210669	322.254720225068	784.297870394228	97.140277758224	355.128443240914	914.521530464153	47.105560934970	335.224243218911	598.685752917276	1079.714691238877	192.726435524999	656.791505971075	825.989017839800	184.379049608215	673.240946340774	1087.330322628999	761.793898790649	903.941499974649	983.079366838940	728.229622829371	
39	8.532000000000	705.845672621004	962.194825581234	321.955607396580	484.380509961036	996.762723646776	471.813170337241	637.879486187842	1434.520824931187	306.571149252912	740.325815293929	1366.573309307232	469.163002560614	647.791628793596	1433.516052710698	642.379479947722	625.903624188137	1492.611275094336	456.177284757471	708.854878123352	936.164494509044	596.244815342191	739.160691533972	728.039157830465	573.408494523933	650.963804275205	623.696729146140	634.173298852730	729.772147378551	560.912228940912	563.148989539695	717.113119486097	454.254830188091	580.594899133747	773.669502269468	760.949775988670	358.769605420737	708.541749619151	636.741875206817	289.810406502671	796.373772379841	568.329377733982	360.763594611538	804.638936306261	496.131833680599	369.388274548185	779.600913830255	421.270361339659	358.338234929874	698.080190916784	305.985162706875	298.351225096910	745.729153123635	195.262342216709	371.061508077195	643.819753426108	384.611906876472	583.101484404896	527.372457368969	333.225058746469	641.269618765852	519.735446678493	226.098099052101	586.525779541268	320.659233811363	137.627736620299	561.173271751365	497.304640013589	109.962836140496	592.512054986449	392.072800667198	87.775795690275	628.833921968617	581.019663140459	33.412038115088	609.190260535683	617.314140293795	37.196652975598	397.646242728149	696.990110520412	35.391562446098	322.245713224812	777.315661788925	96.976179020692	355.216127405919	907.548006589004	46.666612856328	335.308589407259	605.436040729387	1080.559589322611	188.263713874162	675.738394014708	829.748719832398	180.263847531982	662.739779930743	1086.962720251637	757.495378586501	886.393349086299	966.420586659062	727.395769627917	
